<svg xmlns="http://www.w3.org/2000/svg" xmlns:xlink="http://www.w3.org/1999/xlink" width="431.623" height="361.994" viewBox="0 0 431.623 361.994">
  <defs>
    <linearGradient id="linear-gradient" x1="0.32" x2="0.886" y2="0.52" gradientUnits="objectBoundingBox">
      <stop offset="0" stop-color="#b5e2f6"/>
      <stop offset="1" stop-color="#cae4ef"/>
    </linearGradient>
  </defs>
  <g id="Group_3758" data-name="Group 3758" transform="translate(-173 -366.006)">
  
    <path id="Path_19382" data-name="Path 19382" d="M110.73,324.053a251.193,251.193,0,0,1-25.47-36.592l.005,0-.1-.167c2.1-1.693,10.062-9.022,4.877-19.245l-.325-.642-.608.386c-6.581,4.182-7.248,10.312-6.706,14.6-1.831-3.338-3.655-6.823-5.429-10.448q-1.286-2.631-2.565-5.421l.086-.023-.081-.178c2.276-1.454,10.99-7.864,6.959-18.594l-.254-.674-.647.318c-7.226,3.545-8.415,9.845-8.255,14.193-2.065-4.823-4.051-9.939-5.865-15.3,2.552-1.169,11.917-6.281,9.472-17.386l-.154-.7-.685.222c-7.746,2.507-9.779,8.689-10.206,13.023-1.552-5.016-2.925-10.221-4.064-15.568,2.637-.99,12.328-5.422,10.682-16.665l-.1-.712-.7.173C63.1,210.5,60.494,216,59.616,220.228a148.728,148.728,0,0,1-1.936-15.912c2.8-.51,13.078-3.152,13.47-14.482l.024-.719-.718.044c-7.966.494-11.49,5.77-13.031,9.831a125.076,125.076,0,0,1,1.144-20.937c2.687-.059,13.458-1,15.588-12.274l.133-.707-.718-.065c-7.523-.68-11.762,3.489-14.01,7.146a112.684,112.684,0,0,1,3.294-12.924c1.554-1.059,11.072-8.113,6.189-19.163l-.289-.659-.629.353c-10.564,5.945-7.111,17.356-6.519,19.071a114.214,114.214,0,0,0-3.354,13.193c-.869-4.213-3.452-9.631-10.836-11.526l-.7-.179-.112.711c-1.766,11.326,8.069,15.832,10.593,16.793l-.043.191.089.005a125.887,125.887,0,0,0-1.166,19.652,14.046,14.046,0,0,0-12.162-9.006l-.716-.071,0,.72c-.03,11.464,10.376,14.426,13.015,14.993l-.014.195.176-.017a150.232,150.232,0,0,0,1.88,15.555A14.152,14.152,0,0,0,44.4,212.91l-.718.058.127.708c2.022,11.29,12.8,12.339,15.487,12.423l.021.2.149-.043c1,4.685,2.183,9.256,3.5,13.688a14,14,0,0,0-13.807-5.422l-.712.109.179.7c2.62,10.324,12.146,11.3,15.645,11.3.273,0,.493-.007.688-.014L65,246.8l.142-.052c1.648,4.866,3.435,9.537,5.3,13.968A14.035,14.035,0,0,0,55.783,257.1l-.689.209.273.665c3.205,7.767,9.834,9.166,14.193,9.166a20,20,0,0,0,3.553-.312q1.343,2.945,2.7,5.72c1.672,3.416,3.386,6.7,5.114,9.868a14.1,14.1,0,0,0-15.295-2.248l-.661.284.345.631a14.043,14.043,0,0,0,12.977,7.672,20.237,20.237,0,0,0,5.659-.827l.082.178.063-.043a253,253,0,0,0,25.653,36.855.653.653,0,1,0,.979-.865M74.692,229.885c1.671,9.519-6.115,13.932-8.655,15.1-.273-2.782-.4-11.732,8.655-15.1M70.2,210.11c.986,9.614-7.1,13.46-9.712,14.447-.075-2.8.437-11.732,9.712-14.447m-.4-19.585c-.746,9.626-9.368,11.968-12.128,12.474.455-2.744,2.64-11.462,12.128-12.474m2.161-24.284c.25,0,.5.005.757.017-2.2,9.413-11.094,10.414-13.888,10.494.818-2.6,4.056-10.511,13.132-10.511m8.432,82.644c3.005,9.175-4.056,14.648-6.409,16.173-.635-2.708-1.962-11.6,6.409-16.173M68.133,141.276c3.521,9-3.238,14.866-5.494,16.516-.82-2.673-2.718-11.419,5.494-16.516M47.8,161.964c9.249,2.8,9.675,11.743,9.574,14.537-2.606-1.01-10.651-4.933-9.574-14.537m-3.28,28.092c9.555,1.367,11.337,10.121,11.664,12.909-2.707-.631-11.268-3.376-11.664-12.909m.719,24.113c9.627-.361,12.964,7.932,13.785,10.615-2.779-.137-11.691-1.307-13.785-10.615m4.85,21.546c9.609-1.052,13.507,7,14.511,9.613-2.8.088-11.733-.359-14.511-9.613m6.781,22.44c9.023-2.325,13.992,4.481,15.56,7.158.042.1.086.193.129.289-2.783.46-11.682,1.169-15.69-7.447M89.2,269.3c3.992,8.791-2.426,15-4.6,16.78-.927-2.623-3.222-11.313,4.6-16.78M66.833,281.095c9.036-3.418,14.831,3.4,16.452,5.68-2.681.791-11.448,2.588-16.452-5.68" transform="translate(150.109 343.488)" fill="#fff"/>
    <g id="Group_3709" data-name="Group 3709" transform="translate(-37 246)">
      <g id="Group_3305" data-name="Group 3305" transform="translate(27 -4)">
        <path id="Path_12" data-name="Path 12" d="M68.6,427.8s-13.843-46.929-27.986-66.252-14.5-49.192,8.485-50.874,32.691,32.4,38.974,57.434S93.649,427.8,93.649,427.8Z" transform="translate(187.409 33.671)" fill="#fff"/>
        <path id="Path_13" data-name="Path 13" d="M88.88,401.568a.457.457,0,0,0-.631.137l-7.219,11.234q-2.263-9.7-4.611-18.2l7.945-14.489a.457.457,0,0,0-.8-.439l-7.492,13.663c-1.863-6.718-3.739-12.877-5.583-18.493l6.868-19.021a.456.456,0,0,0-.274-.585.461.461,0,0,0-.585.273l-6.474,17.93c-2.911-8.758-5.728-16.159-8.269-22.259l4.558-16.252a.457.457,0,1,0-.88-.246l-4.246,15.143c-6.017-14.227-10.349-20.96-10.44-21.1a.457.457,0,0,0-.764.5c.091.139,4.444,6.911,10.479,21.226L45.89,346.529a.457.457,0,1,0-.245.88l15.266,4.26c2.548,6.119,5.378,13.554,8.3,22.364L54.1,366.609a.457.457,0,0,0-.4.82l15.918,7.821c1.858,5.663,3.75,11.878,5.63,18.667l-12.989-4.946a.456.456,0,1,0-.324.853l13.612,5.183q2.348,8.564,4.638,18.327l-12.846-5.267a.457.457,0,0,0-.346.846l13.443,5.511q1.573,6.823,3.082,14.231a.458.458,0,0,0,.448.366.439.439,0,0,0,.09-.009.457.457,0,0,0,.357-.539q-1.508-7.449-3.1-14.292l7.7-11.982a.457.457,0,0,0-.137-.631" transform="translate(186.15 32.107)" fill="#98dbf9"/>
      </g>
      <g id="Group_3306" data-name="Group 3306" transform="translate(-93.638 88.536) rotate(-16)">
        <path id="Path_14" data-name="Path 14" d="M74.332,431.733h-20.7S13.935,389.1,23.225,370.2s24.75-18.447,32.881-1.269,18.225,62.8,18.225,62.8" transform="translate(188.186 29.735)" fill="#fff"/>
        <path id="Path_15" data-name="Path 15" d="M66.762,418.81a.458.458,0,0,0-.593.255l-3.022,7.576c-1.269-3.6-2.62-7.213-4.01-10.775l4.419-10.527a.457.457,0,1,0-.842-.353l-4.054,9.66c-1.617-4.1-3.274-8.122-4.906-11.955l4.781-12.634a.456.456,0,0,0-.854-.322l-4.444,11.742c-2.229-5.2-4.388-10.007-6.305-14.169l4.646-11.658a.457.457,0,1,0-.849-.339L46.4,386.165c-3.841-8.289-6.577-13.708-6.643-13.839a.457.457,0,1,0-.815.414c.067.132,2.835,5.614,6.709,13.982L33.2,384.693a.456.456,0,1,0-.147.9l13.068,2.128c1.938,4.206,4.123,9.076,6.374,14.335L37.342,398.84a.457.457,0,1,0-.19.894l15.777,3.349c1.655,3.886,3.334,7.964,4.971,12.127l-12.653-2.934a.457.457,0,0,0-.206.891L58.3,416.24c1.41,3.615,2.78,7.284,4.065,10.934l-9.052-3.331A.457.457,0,0,0,53,424.7l9.758,3.591q.818,2.356,1.586,4.694a.456.456,0,0,0,.434.315.482.482,0,0,0,.142-.022.458.458,0,0,0,.292-.576q-.77-2.361-1.6-4.749l3.41-8.55a.456.456,0,0,0-.255-.594" transform="translate(187.246 28.346)" fill="#98dbf9"/>
      </g>
    </g>
    <g id="Group_3707" data-name="Group 3707" transform="translate(457.563 587.281)">
      <g id="Group_3307" data-name="Group 3307" transform="translate(0 0)">
        <path id="Path_12-2" data-name="Path 12" d="M55.841,427.8s13.843-46.929,27.986-66.252,14.5-49.191-8.485-50.874-32.692,32.4-38.974,57.434S30.8,427.8,30.8,427.8Z" transform="translate(-30.772 -310.611)" fill="#fff"/>
        <path id="Path_13-2" data-name="Path 13" d="M45.52,401.568a.457.457,0,0,1,.631.137l7.219,11.234q2.263-9.7,4.611-18.2l-7.945-14.489a.457.457,0,0,1,.8-.439l7.492,13.663c1.863-6.718,3.739-12.877,5.583-18.493l-6.868-19.021a.456.456,0,0,1,.274-.585.461.461,0,0,1,.585.273l6.474,17.93c2.911-8.758,5.728-16.158,8.269-22.259l-4.558-16.252a.457.457,0,1,1,.88-.246l4.246,15.143c6.017-14.227,10.349-20.96,10.44-21.1a.457.457,0,0,1,.765.5c-.091.139-4.444,6.911-10.479,21.226l14.571-4.065a.457.457,0,1,1,.245.88l-15.266,4.26c-2.548,6.119-5.378,13.554-8.3,22.364L80.3,366.609a.457.457,0,0,1,.4.82L64.784,375.25c-1.858,5.663-3.75,11.878-5.63,18.667l12.989-4.946a.456.456,0,1,1,.324.853l-13.612,5.183q-2.348,8.564-4.638,18.327l12.846-5.267a.457.457,0,0,1,.346.846l-13.443,5.511q-1.573,6.823-3.082,14.231a.458.458,0,0,1-.448.366.439.439,0,0,1-.09-.009.457.457,0,0,1-.357-.539q1.508-7.449,3.1-14.292l-7.7-11.982a.457.457,0,0,1,.137-.631" transform="translate(-39.467 -312.175)" fill="#98dbf9"/>
      </g>
      <g id="Group_3308" data-name="Group 3308" transform="translate(72.607 134.132) rotate(-164)">
        <path id="Path_14-2" data-name="Path 14" d="M52.516,0h-20.7S-7.881,42.635,1.409,61.531,26.159,79.979,34.29,62.8,52.516,0,52.516,0" transform="translate(0 0.178)" fill="#fff"/>
        <path id="Path_15-2" data-name="Path 15" d="M34.1,14.491a.458.458,0,0,1-.593-.255L30.482,6.659c-1.269,3.6-2.62,7.213-4.01,10.775l4.419,10.527a.457.457,0,1,1-.842.353l-4.054-9.66c-1.617,4.1-3.274,8.122-4.906,11.955l4.781,12.634a.456.456,0,0,1-.854.322L20.572,31.823c-2.229,5.2-4.388,10.007-6.305,14.169L18.913,57.65a.457.457,0,1,1-.849.339L13.739,47.136C9.9,55.424,7.162,60.843,7.1,60.974a.457.457,0,1,1-.815-.414c.067-.132,2.835-5.615,6.709-13.982L.53,48.607a.456.456,0,1,1-.147-.9l13.068-2.128c1.938-4.206,4.123-9.076,6.374-14.335L4.677,34.461a.457.457,0,1,1-.19-.894l15.777-3.349c1.655-3.886,3.334-7.964,4.971-12.127L12.582,21.024a.457.457,0,0,1-.206-.891L25.638,17.06c1.41-3.615,2.78-7.284,4.065-10.934L20.65,9.457a.457.457,0,0,1-.316-.857l9.759-3.591q.818-2.356,1.586-4.694A.456.456,0,0,1,32.112,0a.482.482,0,0,1,.142.022A.458.458,0,0,1,32.546.6q-.77,2.361-1.6,4.749l3.41,8.55a.456.456,0,0,1-.255.594" transform="translate(9.909 0)" fill="#98dbf9"/>
      </g>
    </g>
    <path id="Path_19380" data-name="Path 19380" d="M43.367,324.052a251.193,251.193,0,0,0,25.47-36.592l-.005,0,.1-.167c-2.1-1.693-10.062-9.022-4.877-19.245l.325-.642.608.386c6.581,4.182,7.248,10.312,6.706,14.6,1.831-3.338,3.655-6.823,5.429-10.448q1.286-2.631,2.565-5.421L79.6,266.5l.081-.178c-2.276-1.454-10.991-7.864-6.959-18.594l.254-.674.647.318c7.226,3.545,8.415,9.845,8.255,14.193,2.065-4.823,4.051-9.939,5.865-15.3-2.552-1.169-11.917-6.281-9.472-17.386l.154-.7.685.222c7.746,2.507,9.779,8.689,10.206,13.023,1.552-5.016,2.925-10.221,4.064-15.568-2.637-.99-12.328-5.422-10.682-16.665l.1-.712.7.173C91,210.5,93.6,216,94.481,220.227a148.726,148.726,0,0,0,1.936-15.912c-2.8-.51-13.078-3.152-13.47-14.482l-.024-.719.718.044c7.966.494,11.49,5.77,13.031,9.831a125.074,125.074,0,0,0-1.144-20.936c-2.687-.059-13.458-1-15.588-12.274l-.133-.707.718-.065c7.523-.68,11.762,3.489,14.01,7.146a112.683,112.683,0,0,0-3.294-12.924c-1.554-1.059-11.072-8.113-6.189-19.163l.289-.659.629.353c10.564,5.945,7.111,17.356,6.519,19.071a114.212,114.212,0,0,1,3.354,13.193c.869-4.213,3.452-9.631,10.836-11.526l.7-.179.112.711c1.766,11.326-8.069,15.832-10.593,16.793l.043.191-.089.005a125.887,125.887,0,0,1,1.166,19.652,14.046,14.046,0,0,1,12.162-9.006l.716-.071,0,.72c.03,11.464-10.376,14.426-13.015,14.993l.014.195-.176-.017a150.228,150.228,0,0,1-1.88,15.555,14.152,14.152,0,0,1,13.858-7.13l.718.058-.127.708c-2.022,11.29-12.8,12.339-15.487,12.423l-.021.2-.149-.043c-1,4.685-2.183,9.256-3.5,13.688a14,14,0,0,1,13.807-5.422l.712.109-.179.7c-2.62,10.324-12.146,11.3-15.645,11.3-.273,0-.493-.007-.688-.014l-.035.195-.142-.052c-1.648,4.866-3.435,9.537-5.3,13.968A14.035,14.035,0,0,1,98.314,257.1l.689.209-.273.665c-3.205,7.767-9.834,9.166-14.193,9.166a20,20,0,0,1-3.553-.312q-1.343,2.945-2.7,5.72c-1.672,3.416-3.386,6.7-5.114,9.868a14.1,14.1,0,0,1,15.295-2.248l.661.284-.345.631A14.043,14.043,0,0,1,75.8,288.755a20.237,20.237,0,0,1-5.659-.827l-.082.178L70,288.063a252.993,252.993,0,0,1-25.653,36.855.653.653,0,1,1-.979-.865M79.4,229.884c-1.671,9.519,6.115,13.932,8.655,15.1.273-2.782.4-11.732-8.655-15.1M83.9,210.11c-.986,9.614,7.1,13.46,9.712,14.447.075-2.8-.437-11.732-9.712-14.447m.4-19.585c.746,9.626,9.368,11.968,12.128,12.474-.455-2.744-2.64-11.462-12.128-12.474m-2.161-24.284c-.25,0-.5.005-.757.017,2.2,9.413,11.094,10.414,13.888,10.494-.818-2.6-4.056-10.511-13.132-10.511M73.7,248.885c-3.005,9.175,4.056,14.648,6.409,16.173.635-2.708,1.962-11.6-6.409-16.173M85.964,141.276c-3.521,9,3.238,14.866,5.494,16.516.82-2.673,2.718-11.419-5.494-16.516m20.33,20.688c-9.249,2.8-9.675,11.743-9.574,14.537,2.606-1.01,10.651-4.933,9.574-14.537m3.28,28.092c-9.555,1.367-11.337,10.121-11.664,12.909,2.707-.631,11.268-3.376,11.664-12.909m-.719,24.113c-9.627-.361-12.964,7.932-13.785,10.615,2.779-.137,11.691-1.307,13.785-10.615m-4.85,21.546c-9.609-1.052-13.507,7-14.511,9.613,2.8.088,11.733-.359,14.511-9.613m-6.781,22.44c-9.023-2.325-13.992,4.481-15.56,7.158-.042.1-.086.193-.129.289,2.783.46,11.682,1.169,15.69-7.447M64.9,269.3c-3.992,8.791,2.426,15,4.6,16.78.927-2.623,3.222-11.313-4.6-16.78m22.364,11.793c-9.036-3.418-14.831,3.4-16.452,5.68,2.681.791,11.448,2.588,16.452-5.68" transform="translate(420.109 343.488)" fill="#fff"/>
    <path id="Path_19381" data-name="Path 19381" d="M378.463,454.351c0,8.728-74.738,15.8-166.933,15.8S44.6,463.079,44.6,454.351,119.335,438.54,211.53,438.54s166.933,7.08,166.933,15.811" transform="translate(152.537 257.844)" fill="#FEB65A" style="opacity: 0.5"/>
    <g id="Group_3757" data-name="Group 3757" transform="translate(-140.438 -1846.758)">
      <g id="Group_3727" data-name="Group 3727" transform="translate(318 2363.047)">
        <g id="Group_3712" data-name="Group 3712" transform="translate(16.571 24.278)">
          <g id="Group_3710" data-name="Group 3710">
            <path id="Path_19383" data-name="Path 19383" d="M46.97,159.36l-4.876-4,1.62-2.159,3.946,2,.292-1.376,3.755,3.933-1.381,2.471Z" transform="translate(-42.094 -153.2)" fill="#eac1a4"/>
          </g>
          <g id="Group_3711" data-name="Group 3711" transform="translate(6.299 2.8)">
            <path id="Path_19384" data-name="Path 19384" d="M108.139,160.765,86.284,172.2,60.579,160.31l-2.489,5.043,27.238,20.762,29.884-7.978Z" transform="translate(-58.09 -160.31)" fill="#7db5db"/>
          </g>
        </g>
        <g id="Group_3713" data-name="Group 3713" transform="translate(79.083 38.016)">
          <path id="Path_19385" data-name="Path 19385" d="M320.2,193.245l4.591-3.136-1.255-2.021-3.62,1.451-.15-1.231-3.6,3.162,1.021,2.277Z" transform="translate(-270.758 -188.088)" fill="#ebceb1"/>
          <path id="Path_19386" data-name="Path 19386" d="M247.117,192.8l1.794,4.621c.246.758-17.145,10.575-18.693,11.28-3.41,1.551-9.592,5.213-9.592,5.213-4.742.059-13.67-2.369-16.652-3.652-1.2-.517-2.057-3.177-2.786-4.236-.925-1.342.253-3.707,1.045-4.8a11.225,11.225,0,0,1,6.839-4.38,6.43,6.43,0,0,1,2.959.015c.988.275,2.252-4.277,3.091-3.686,1.49,1.05,2.315,7.98,4.088,8.583C221.437,202.518,246.591,191.714,247.117,192.8Z" transform="translate(-200.849 -190.899)" fill="#F36580"/>
        </g>
        <path id="Path_19387" data-name="Path 19387" d="M114.871,164.244l-.307.013c-4.879.237-10.786,6.642-14.209,10.422-8.834,9.758-15,20.938-19.622,33.44-2.487,6.731-4.682,13.572-6.74,20.451-.569,1.9-4.562,19.283-5.53,19.406,9.93-1.268,19.926-2.26,29.817-1.573s19.726,3.111,28.206,8.328a475.122,475.122,0,0,0,8.6-68.012,58.954,58.954,0,0,0,.284-8.179c-.293-3.095-1.818-4.489-3.55-6.839a15.547,15.547,0,0,0-1.916-2.281C126.087,165.912,119.983,164.078,114.871,164.244Z" transform="translate(-41.51 -135.61)" fill="#F36580"/>
        <g id="Group_3715" data-name="Group 3715" transform="translate(38.717 96.95)">
          <g id="Group_3714" data-name="Group 3714">
            <path id="Path_19388" data-name="Path 19388" d="M98.335,345.221l10.334,41.942.231,30.915,5.017,1.085,1.961-28.752,4.925-52.655Z" transform="translate(-98.335 -337.756)" fill="#ebceb1"/>
          </g>
          <path id="Path_19389" data-name="Path 19389" d="M129.617,545.025l.811,3.136-.711,6.152-4.066.007-1.522-8.893.472-1.487Z" transform="translate(-113.972 -462.752)" fill="#3b455a"/>
        </g>
        <g id="Group_3716" data-name="Group 3716" transform="translate(57.425 98.107)">
          <path id="Path_19390" data-name="Path 19390" d="M166.594,342.368l.911,36.242L162.668,429.8l-4.954.363-1.779-46.925-10.087-42.541Z" transform="translate(-145.848 -340.692)" fill="#ebceb1"/>
          <path id="Path_19391" data-name="Path 19391" d="M179.481,564.807l6.672,3.542-.529,3.116-11.786-1.444.566-4.484Z" transform="translate(-162.816 -476.558)" fill="#3b455a"/>
        </g>
        <path id="Path_19392" data-name="Path 19392" d="M168.86,350.735l3.357,41.872L168.8,421.324l-13.417-.761-2.391-32.647-5.8-35.593.9-5.541,19.337.283Z" transform="translate(-89.237 -246.277)" fill="#FEB65A"/>
        <path id="Path_19393" data-name="Path 19393" d="M119.224,386.425l-1.576,30.033-11.663-.6.238-28.483-7.354-35.77,1.678-10,19.614,1.221Z" transform="translate(-59.942 -243.141)" fill="#FEB65A"/>
        <path id="Path_19394" data-name="Path 19394" d="M141.7,243.987c-11.966-2.065-31.356-7.065-43.323-9.129,6.262-20.792,16.23-43.888,27.851-62.152,2.108-3.312,4.741-6.768,8.513-7.554,4.042-.842,11.127,1.822,11.911,6.342,1.149,6.613-1.235,15.733-1.97,22.42C143.02,209.044,144.6,229.039,141.7,243.987Z" transform="translate(-59.646 -136.073)" fill="#fff"/>
        <g id="Group_3719" data-name="Group 3719" transform="translate(64.064)">
          <path id="Path_19395" data-name="Path 19395" d="M215.1,122.745c1.613-8.887-9.287-11.432-14.834-5.864-3.654,3.668-3.486,11.244.217,14.9q-1.08,1.524-2.027,3.136l3.7,1.716a1.309,1.309,0,0,0,1.2.131,1.288,1.288,0,0,0,.437-.612l1.053-2.35c.107.01.215.018.324.024a8.591,8.591,0,0,0,6.965-3.577A17.212,17.212,0,0,0,215.1,122.745Z" transform="translate(-183.869 -105.12)" fill="#eac1a4"/>
          <g id="Group_3718" data-name="Group 3718">
            <g id="Group_3717" data-name="Group 3717">
              <path id="Path_19396" data-name="Path 19396" d="M229.717,121.909c.316,3-1.684,5.677-3.425,7.961-1.544,2.026-2.235,3.43.291,4.624,1.423.673,3.94,1.9,5.507,1.039,1.186-.651,1.217-3.457.967-4.63-.191-.9-1.079-1.524-1.245-2.424a2.947,2.947,0,0,1,.07-1.122,15.32,15.32,0,0,1,1.6-4.321,15.549,15.549,0,0,0,1.423-2.791c.452-1.449-.214-3.4-.464-4.876-.465-2.748-3.274-6.916-6.685-5.589a4.451,4.451,0,0,0-1.832,1.65,3.687,3.687,0,0,0-.7,1.308c-.449,1.933,1.248,2.649,2.267,3.84A9.941,9.941,0,0,1,229.717,121.909Z" transform="translate(-200.415 -102.444)" fill="#2c1e56"/>
              <path id="Path_19397" data-name="Path 19397" d="M177.839,108.368c-.413,1.348-.029,3.032-1.036,4.018a6.115,6.115,0,0,1-1.641.9,4.985,4.985,0,0,0-2.689,4.109l-8.173-2.131a2.532,2.532,0,0,1-1.148-.517c-.657-.626-.463-1.7-.219-2.574.48-1.721,1.032-3.555,2.419-4.683.643-.523,1.423-.854,2.064-1.379,3.082-2.526,1.9-8.409,5.4-10.321,1.56-.853,3.477-.52,5.228-.831,3.052-.543,5.528-3.038,8.609-3.381,5.819-.649,9.613,7.107,5.342,11.225C188.513,106.164,179.5,102.94,177.839,108.368Z" transform="translate(-162.706 -91.543)" fill="#2c1e56"/>
            </g>
          </g>
        </g>
        <path id="Path_19398" data-name="Path 19398" d="M121.366,167.391s-20.7,49.908-16.125,62.638,6.7,17.662,6.7,17.662l-31.69,1.325S100.476,176.1,121.366,167.391Z" transform="translate(-48.654 -137.525)" fill="#F36580"/>
        <g id="Group_3726" data-name="Group 3726" transform="translate(0 10.198)">
          <g id="Group_3725" data-name="Group 3725">
            <g id="Group_3724" data-name="Group 3724">
              <g id="Group_3722" data-name="Group 3722">
                <rect id="Rectangle_1033" data-name="Rectangle 1033" width="67.618" height="89.449" transform="translate(0 15.276) rotate(-8.604)" fill="#755635"/>
                <path id="Path_19399" data-name="Path 19399" d="M45.214,229.673l1-.152,59.316-7.118L91.322,139l-2.626,1.2Z" transform="translate(-27.415 -130.509)" fill="#080a0a" opacity="0.26"/>
                <rect id="Rectangle_1034" data-name="Rectangle 1034" width="60.798" height="82.758" transform="translate(3.798 17.583) rotate(-8.604)" fill="#fffdf3"/>
                <path id="Path_19400" data-name="Path 19400" d="M8.7,151.355l43.237-6.542L14.087,187.448Z" transform="translate(-5.276 -134.035)" fill="#040605" opacity="0.05"/>
                <g id="Group_3721" data-name="Group 3721" transform="translate(20.272)">
                  <rect id="Rectangle_1035" data-name="Rectangle 1035" width="26.404" height="2.457" transform="translate(0.46 14.578) rotate(-8.604)" fill="#000100" opacity="0.12"/>
                  <g id="Group_3720" data-name="Group 3720">
                    <path id="Path_19401" data-name="Path 19401" d="M71.6,121.531l-.4.061-.042-.271c-.386-2.551-3.095-4.256-6.05-3.808l-3.893.589c-2.956.447-5.038,2.878-4.652,5.428l.041.271-.405.061c-2.955.447-5.038,2.877-4.652,5.428l.782,5.16L78.428,130.5l-.781-5.16C77.261,122.789,74.552,121.084,71.6,121.531Zm-4.247.751-6.879,1.041a1.282,1.282,0,1,1-.384-2.535l6.879-1.041a1.282,1.282,0,1,1,.384,2.535Z" transform="translate(-51.493 -117.442)" fill="#e5eae9"/>
                  </g>
                </g>
              </g>
              <g id="Group_3723" data-name="Group 3723" transform="translate(14.831 37.909)" opacity="0.47">
                <path id="Path_19402" data-name="Path 19402" d="M46.9,213.719l-8.826,1.336a.469.469,0,0,0-.391.525q.663,4.374,1.325,8.749a.469.469,0,0,0,.529.386l8.826-1.335a.431.431,0,0,0,.292-.169l.013-.017.007-.01a.425.425,0,0,0,.078-.329q-.663-4.374-1.325-8.749A.469.469,0,0,0,46.9,213.719Zm.865,8.818-7.907,1.2q-.593-3.92-1.186-7.838l7.906-1.2Z" transform="translate(-37.676 -213.714)" fill="#899397"/>
                <path id="Path_19403" data-name="Path 19403" d="M53.118,254.8l-8.826,1.335a.47.47,0,0,0-.39.525q.662,4.375,1.325,8.749a.469.469,0,0,0,.529.386l8.825-1.335a.431.431,0,0,0,.293-.169l.014-.017.007-.01a.423.423,0,0,0,.078-.329q-.662-4.374-1.325-8.749A.47.47,0,0,0,53.118,254.8Zm.865,8.818-7.906,1.2q-.594-3.919-1.187-7.837l7.906-1.2Z" transform="translate(-41.447 -238.619)" fill="#899397"/>
                <path id="Path_19404" data-name="Path 19404" d="M59.338,295.881l-8.826,1.335a.47.47,0,0,0-.391.525q.663,4.374,1.325,8.749a.471.471,0,0,0,.529.387l8.826-1.336a.429.429,0,0,0,.292-.169.134.134,0,0,0,.013-.017l.007-.01a.423.423,0,0,0,.078-.329q-.663-4.374-1.325-8.749A.47.47,0,0,0,59.338,295.881ZM60.2,304.7,52.3,305.9l-1.186-7.837,7.906-1.2Q59.61,300.781,60.2,304.7Z" transform="translate(-45.218 -263.524)" fill="#899397"/>
              </g>
              <path id="Path_19405" data-name="Path 19405" d="M47.5,212.791l1.927-.977,1.431,1.84,8.643-8.393,1.161.053L50.783,216.18Z" transform="translate(-28.802 -170.681)" fill="#587bc9"/>
              <path id="Path_19406" data-name="Path 19406" d="M52.013,255.2l1.927-.977,1.432,1.84,8.643-8.393,1.161.053-9.883,10.866Z" transform="translate(-31.536 -196.388)" fill="#587bc9"/>
              <path id="Path_19407" data-name="Path 19407" d="M57.434,294.148l1.927-.977,1.431,1.84,8.643-8.392,1.161.053-9.883,10.866Z" transform="translate(-34.823 -220.003)" fill="#587bc9"/>
              <rect id="Rectangle_1036" data-name="Rectangle 1036" width="31.49" height="4.424" transform="translate(35.159 72.962) rotate(-8.605)" fill="#899397" opacity="0.32"/>
              <rect id="Rectangle_1037" data-name="Rectangle 1037" width="31.49" height="4.424" transform="translate(32.565 55.829) rotate(-8.604)" fill="#899397" opacity="0.32"/>
              <rect id="Rectangle_1038" data-name="Rectangle 1038" width="31.49" height="4.424" transform="translate(29.971 38.696) rotate(-8.604)" fill="#899397" opacity="0.32"/>
            </g>
          </g>
        </g>
      </g>
      <g id="Group_3745" data-name="Group 3745" transform="translate(361.806 2423.332)">
        <g id="Group_3744" data-name="Group 3744">
          <path id="Path_19429" data-name="Path 19429" d="M372.426,295.583l-.036,28.352-34.559-.045c.062-.65.091-1.309.091-1.972a22.617,22.617,0,1,0-45.234-.058c0,.666.026,1.323.084,1.972l-177.648-.226.026-19.927a34.727,34.727,0,0,1,19.508-31.168l33.957-10.649,1.687-.013,16.853-37.239a29.073,29.073,0,0,1,26.351-17.486l101.323.129c10.662.013,14.128,13.513,17.972,21.4q6.562,13.452,13.122,26.907,1.242,2.551,2.486,5.1l.437,0,14.512,13.775A29.105,29.105,0,0,1,372.426,295.583Z" transform="translate(-115.124 -207.123)" fill="#3d38a0"/>
          <path id="Path_19430" data-name="Path 19430" d="M527.1,274.658l67.6.086L579.4,236.91a4.859,4.859,0,0,0-4.463-3.109l-47.781-.061Z" transform="translate(-377.791 -224.093)" fill="#d7e8f4"/>
          <path id="Path_19431" data-name="Path 19431" d="M371.022,233.612l-38.724-.049a21.2,21.2,0,0,0-19.214,12.751l-12.728,28.126,70.614.09Z" transform="translate(-233.223 -223.98)" fill="#d7e8f4"/>
          <g id="Group_3735" data-name="Group 3735" transform="translate(79.737 9.669)" opacity="0.2">
            <path id="Path_19432" data-name="Path 19432" d="M636.89,246.569q1.347.722,2.694,1.449L635.4,237.665a4.859,4.859,0,0,0-4.463-3.109l-16.553-.021C621.857,238.593,629.393,242.547,636.89,246.569Z" transform="translate(-513.174 -234.269)" fill="#f4f4f2"/>
            <path id="Path_19433" data-name="Path 19433" d="M586.412,255.126c-12.4-6.731-25.44-14.365-37.713-21.324l-15.529.228c10.631,9.142,24.069,17.271,35.941,24.591,7.136,4.4,14.423,8.559,21.887,12.379,2.446,1.251,5.008,2.387,7.575,3.534l-6.625-16.378Q589.185,256.63,586.412,255.126Z" transform="translate(-461.397 -233.802)" fill="#f4f4f2"/>
            <path id="Path_19434" data-name="Path 19434" d="M380.979,265.144c-5.214-3.38-10.618-6.5-16.055-9.5-5.507-3.044-11.089-6.1-16.86-8.618-1.9-.83-3.827-1.6-5.746-2.383a22.065,22.065,0,0,0-7.061,8.737l-.124.273c5.838,4.09,11.715,8.129,17.512,12.252,8.576,6.1,18.043,10.72,27.3,15.675l13.193.017.01-7.415C389.1,271.161,385.224,267.9,380.979,265.144Z" transform="translate(-335.134 -240.712)" fill="#f4f4f2"/>
          </g>
          <g id="Group_3736" data-name="Group 3736" transform="translate(57.624 91.465)">
            <path id="Path_19435" data-name="Path 19435" d="M313.889,484.634a18.44,18.44,0,0,0,.348-3.55c.015-11.907-11.357-21.574-25.4-21.592a28.508,28.508,0,0,0-14.717,3.961,48.347,48.347,0,0,1,22.5,11.849,38.984,38.984,0,0,1,7.534,9.258Z" transform="translate(-274.12 -459.492)" opacity="0.1"/>
          </g>
          <g id="Group_3737" data-name="Group 3737" transform="translate(191.781 91.636)">
            <path id="Path_19436" data-name="Path 19436" d="M683.112,485.1a18.859,18.859,0,0,0,.34-3.55c.016-11.907-11.088-21.574-24.8-21.591a27.332,27.332,0,0,0-14.369,3.962,46.846,46.846,0,0,1,21.97,11.848,38.809,38.809,0,0,1,7.355,9.258Z" transform="translate(-644.284 -459.963)" opacity="0.1"/>
          </g>
          <g id="Group_3740" data-name="Group 3740" transform="translate(44.435 91.458)">
            <path id="Path_19437" data-name="Path 19437" d="M282.963,482.12a22.617,22.617,0,1,1-22.589-22.646A22.618,22.618,0,0,1,282.963,482.12Z" transform="translate(-237.728 -459.474)" fill="#2c1e56"/>
            <g id="Group_3739" data-name="Group 3739" transform="translate(9.777 9.777)">
              <g id="Group_3738" data-name="Group 3738">
                <path id="Path_19438" data-name="Path 19438" d="M272.89,511.254a12.837,12.837,0,1,1,16.618-7.309A12.837,12.837,0,0,1,272.89,511.254Z" transform="translate(-264.703 -486.45)" fill="#f4f4f2"/>
              </g>
              <path id="Path_19439" data-name="Path 19439" d="M291.031,541.659a10.461,10.461,0,0,0,6.662-2.786,7.411,7.411,0,0,1-4.97,4.675,11.975,11.975,0,0,1-2.382.348,12.2,12.2,0,0,1-2.549-.043,7.553,7.553,0,0,1-5.452-3.784c.361.652,2.877,1.114,3.5,1.228A20.456,20.456,0,0,0,291.031,541.659Z" transform="translate(-275.948 -519.874)" opacity="0.1"/>
            </g>
          </g>
          <path id="Path_19440" data-name="Path 19440" d="M650.29,484.019c0,.663-.029,1.323-.091,1.972l-45.059-.058c-.058-.649-.084-1.306-.084-1.972a22.617,22.617,0,1,1,45.234.058Z" transform="translate(-427.492 -369.224)" fill="#3b455a" opacity="0.3"/>
          <g id="Group_3743" data-name="Group 3743" transform="translate(192.994 106.408)">
            <g id="Group_3742" data-name="Group 3742">
              <g id="Group_3741" data-name="Group 3741">
                <path id="Path_19441" data-name="Path 19441" d="M652.255,514.727a7.248,7.248,0,1,1,9.383-4.127A7.248,7.248,0,0,1,652.255,514.727Z" transform="translate(-647.632 -500.722)" fill="#efefea"/>
              </g>
              <path id="Path_19442" data-name="Path 19442" d="M662.5,531.9a5.91,5.91,0,0,0,3.762-1.573,4.185,4.185,0,0,1-2.806,2.639,6.762,6.762,0,0,1-1.346.2,6.889,6.889,0,0,1-1.439-.024A4.268,4.268,0,0,1,657.59,531c.2.368,1.625.629,1.978.693A11.575,11.575,0,0,0,662.5,531.9Z" transform="translate(-653.981 -519.594)" opacity="0.1"/>
            </g>
          </g>
        </g>
        <rect id="Rectangle_1039" data-name="Rectangle 1039" width="12.296" height="5.286" rx="2.643" transform="matrix(1, 0.001, -0.001, 1, 119.654, 62.091)" fill="#305399"/>
      </g>
      <g id="Group_3752" data-name="Group 3752" transform="translate(464.435 2437.847)">
        <g id="Group_3746" data-name="Group 3746" transform="translate(0 80.455)">
          <path id="Path_19443" data-name="Path 19443" d="M426.94,554.325l1.96,3.43-.245,2.2-2.94.49-4.41-2.695,1.47-9.31,4.165-1.225Z" transform="translate(-421.305 -519.047)" fill="#2d3544"/>
          <path id="Path_19444" data-name="Path 19444" d="M435.689,479.836s-4.655,8.575,1.715,13.965S454.8,507.765,454.8,507.765l-20.824-4.655-1.47,7.35s31.6,10.535,32.339,9.8,8.575-7.595,8.575-7.595l-16.9-36.993-18.619,2.2Z" transform="translate(-428.094 -475.671)" fill="#bcbec0"/>
        </g>
        <g id="Group_3747" data-name="Group 3747" transform="translate(0.599 34.367)">
          <path id="Path_19445" data-name="Path 19445" d="M479.3,403.488a43.855,43.855,0,0,1-3.131-3.726h0l-5.81-5.541-7.78-17,1.247-11.021s1.272-1.321,2.854-2.908a8.476,8.476,0,0,0-6.774-3.97c-14.827-1.6-13.986-.7-19.027,5.429-2.027,2.464-5.771,9.534-7.065,12.419-1.567,3.495-3.093,7.008-4.5,10.568-1.571,3.972-3,8-4.168,12.109-.13.456-.546,1.721-.991,3.25-.84,2.889-1.782,6.72-1.1,7.828.356.924,1.3,1.909,3.575,2.364,4.9.98,8.82.98,14.209-1.715s14.318-.782,14.318-.782h0c1.42.389,2.9.772,4.483,1.125,11.487,2.562,17.425-4.473,19.287-5.751a1.781,1.781,0,0,0,.367-2.675Z" transform="translate(-422.825 -358.626)" fill="#f7f7f7"/>
        </g>
        <path id="Path_19446" data-name="Path 19446" d="M613.65,374.877a10.447,10.447,0,0,1,1.146-1.116,4.852,4.852,0,0,0,1.013-1.417,6.3,6.3,0,0,0,.383-1.815q.062-.557.123-1.115a.968.968,0,0,1,.107-.409.936.936,0,0,1,.278-.258,11.726,11.726,0,0,1,1.707-.977c.006.669-.361,3.4.474,3.472a57.226,57.226,0,0,0,5.766.028.693.693,0,0,1,.4.078.65.65,0,0,1,.19.239,6.079,6.079,0,0,1,.7,3.751.556.556,0,0,1-.07.232.577.577,0,0,1-.226.175c-1.158.62-2.347,1.161-3.542,1.705-.442.2-.786.508-1.225.715-.214.1-.818.508-1.058.475l-5.138-.709Z" transform="translate(-537.911 -329.802)" fill="#eac1a4"/>
        <path id="Path_19447" data-name="Path 19447" d="M501.43,367.353l5.277,8.767,26.751-4.162,2.145,5.532L502.69,388.364l-22.115-23.121Z" transform="translate(-457.237 -328.27)" fill="#f7f7f7"/>
        <path id="Path_19448" data-name="Path 19448" d="M543.013,569l4.931,3.287v2.26l-4.315.822-6.78-3.288.616-3.082Z" transform="translate(-491.351 -451.793)" fill="#2d3544"/>
        <g id="Group_3748" data-name="Group 3748" transform="translate(22.683 14.706)">
          <path id="Path_19449" data-name="Path 19449" d="M490.742,329.609l-5.989.726a30.116,30.116,0,0,1-.727-4.751c-1.756-.209-3.829-.648-4.492-2.287a4.982,4.982,0,0,1-.265-1.641q-.167-3.449-.334-6.9a6.08,6.08,0,0,1,.2-2.364,5.109,5.109,0,0,1,3.072-2.667,12.432,12.432,0,0,1,10.358.2,5.448,5.448,0,0,1,2.147,1.818,7.384,7.384,0,0,1,.7,4.263q-.075,2.024-.152,4.049c-.058,1.552-.242,3.343-1.532,4.208-.685.459-1.59.572-2.172,1.155C490.522,326.449,491.08,328.194,490.742,329.609Z" transform="translate(-478.909 -308.695)" fill="#eac1a4"/>
        </g>
        <path id="Path_19450" data-name="Path 19450" d="M485.857,472.192l30.1-13.942,6.86,8.82-11.76,36.013-7.84-.98,2.205-21.559s-6.615,5.635-18.374,5.145c-5.39-5.39-5.39-5.145-5.39-5.145Z" transform="translate(-457.892 -384.654)" fill="#bcbec0"/>
        <g id="Group_3751" data-name="Group 3751" transform="translate(63.432 26.845)">
          <path id="Path_19451" data-name="Path 19451" d="M631.541,364.128A24.573,24.573,0,1,1,607,339.523,24.572,24.572,0,0,1,631.541,364.128Z" transform="translate(-582.395 -339.523)" fill="#2c1e56"/>
          <g id="Group_3750" data-name="Group 3750" transform="translate(10.622 10.622)">
            <g id="Group_3749" data-name="Group 3749">
              <path id="Path_19452" data-name="Path 19452" d="M618.264,393.449a13.947,13.947,0,1,1,18.055-7.942A13.948,13.948,0,0,1,618.264,393.449Z" transform="translate(-609.37 -366.499)" fill="#f4f4f2"/>
            </g>
            <path id="Path_19453" data-name="Path 19453" d="M636.45,421.95a11.371,11.371,0,0,0,7.237-3.027,8.052,8.052,0,0,1-5.4,5.079,13,13,0,0,1-2.589.378,13.228,13.228,0,0,1-2.769-.047,8.207,8.207,0,0,1-5.923-4.111c.392.708,3.126,1.21,3.8,1.333A22.229,22.229,0,0,0,636.45,421.95Z" transform="translate(-620.062 -398.28)" opacity="0.1"/>
          </g>
        </g>
        <path id="Path_19454" data-name="Path 19454" d="M553.99,389.024l-20.9-5.166-11.02-18.708-7.763-3.4,6.148,30.4,34.852,3.279Z" transform="translate(-477.686 -326.155)" fill="#f7f7f7"/>
        <path id="Path_19455" data-name="Path 19455" d="M480.811,287.8l-10.228,2.867.324,8.861-7.145-2.8-1.948-15.264,21.272-10.112,8.992,11.086-7.878,7.188Z" transform="translate(-445.863 -271.348)" fill="#2c1e56"/>
        <path id="Path_19456" data-name="Path 19456" d="M609.19,425.722a10.428,10.428,0,0,1,1.145-1.116,4.856,4.856,0,0,0,1.013-1.418,6.322,6.322,0,0,0,.384-1.814q.061-.558.122-1.116a.975.975,0,0,1,.107-.409.934.934,0,0,1,.279-.258,11.675,11.675,0,0,1,1.707-.977c.007.668-.361,3.4.475,3.471a57.1,57.1,0,0,0,5.766.028.7.7,0,0,1,.4.077.662.662,0,0,1,.191.239,6.084,6.084,0,0,1,.7,3.751.543.543,0,0,1-.069.232.578.578,0,0,1-.226.175c-1.159.619-2.347,1.161-3.542,1.7-.441.2-.786.508-1.224.715-.215.1-.818.508-1.059.474l-5.137-.709Z" transform="translate(-535.207 -360.626)" fill="#eac1a4"/>
      </g>
      <g id="Group_3753" data-name="Group 3753" transform="translate(553.204 2540.508)">
        <path id="Path_19457" data-name="Path 19457" d="M660.3,547.506l-13.173-13.173a1.334,1.334,0,0,1,0-1.882h0a1.334,1.334,0,0,1,1.882,0l13.173,13.173a1.335,1.335,0,0,1,0,1.882h0A1.334,1.334,0,0,1,660.3,547.506Z" transform="translate(-646.741 -532.063)" fill="#c9c9c9"/>
        <path id="Path_19458" data-name="Path 19458" d="M647.282,533.231c-.428.547-.111,1.639.745,2.494l11.8,11.8c.855.855,1.948,1.172,2.494.744Z" transform="translate(-646.954 -532.771)" fill="#adadad"/>
      </g>
      <g id="Group_3754" data-name="Group 3754" transform="translate(553.907 2540.508)">
        <path id="Path_19459" data-name="Path 19459" d="M650.8,547.506l13.173-13.173a1.334,1.334,0,0,0,0-1.882h0a1.334,1.334,0,0,0-1.882,0l-13.173,13.173a1.335,1.335,0,0,0,0,1.882h0A1.334,1.334,0,0,0,650.8,547.506Z" transform="translate(-648.526 -532.063)" fill="#c9c9c9"/>
        <path id="Path_19460" data-name="Path 19460" d="M664.737,533.231c.427.547.111,1.639-.745,2.494l-11.805,11.8c-.855.855-1.948,1.172-2.494.744Z" transform="translate(-649.233 -532.771)" fill="#adadad"/>
      </g>
      <g id="Group_3755" data-name="Group 3755" transform="translate(545.904 2555.161)">
        <path id="Path_19461" data-name="Path 19461" d="M656.653,574.193H630.662a2.466,2.466,0,0,1-2.459-2.459h0a2.467,2.467,0,0,1,2.459-2.459h25.992a2.466,2.466,0,0,1,2.459,2.459h0A2.466,2.466,0,0,1,656.653,574.193Z" transform="translate(-628.203 -569.275)" fill="#c9c9c9"/>
        <path id="Path_19462" data-name="Path 19462" d="M628.234,575.958c.122,1.273,1.568,2.286,3.325,2.286h24.235c1.756,0,3.2-1.014,3.325-2.286Z" transform="translate(-628.222 -573.326)" fill="#adadad"/>
      </g>
      <g id="Group_3756" data-name="Group 3756" transform="translate(518.64 2341)">
        <g id="Group_3728" data-name="Group 3728" transform="translate(36.452 67.504)">
          <path id="Path_19408" data-name="Path 19408" d="M739.815,179.008l-2.487-2.019-.247-2.813-.623-.25-.339.754-.874-2.276-1.725-.97-2.385,1.116-1.234,2.425,1.359,2.251L734,178.733l3.284,2.911Z" transform="translate(-729.9 -171.433)" fill="#eac1a4"/>
          <path id="Path_19409" data-name="Path 19409" d="M745.192,180.581l13.986,10.483,25.515-13.357,2.933,16.488-25.751,10.65-7.265-.862-15.054-20Z" transform="translate(-735.754 -175.236)" fill="#F36580"/>
        </g>
        <g id="Group_3732" data-name="Group 3732" transform="translate(64.374 36.668)">
          <path id="Path_19410" data-name="Path 19410" d="M888.421,222a82.213,82.213,0,0,1-1.7-11.052c-.2-6.865-1.076-29.539-1.076-29.539l-4.261-8.673-.787.007.17-.02a5.95,5.95,0,0,1,.068-1.892c7.43.447,15.046,4.343,17.178,11.577a8.981,8.981,0,0,1,.362,1.824c.3,3.717-.838,6.462.235,10.195.931,3.243,1.776,6.535,2.4,9.854.9,4.8,1.726,9.585,2.378,14.354a147.038,147.038,0,0,1,1.38,15.783c.017.579.133,2.2.2,4.131.137,4.05.049,9.467-1.656,9.669a1.681,1.681,0,0,1-.908-.239,60.232,60.232,0,0,1-5.856-3.673l-.1-21.127Z" transform="translate(-849.18 -140.236)" fill="#F36580"/>
          <path id="Path_19411" data-name="Path 19411" d="M800.857,244.177c.436-4.5.889-8.99,1.442-13.473a166.241,166.241,0,0,1,5.146-26.519c.971-3.306,2.091-6.568,3.21-9.827l4.089-11.908c1.694-4.933,4.553-8.408,9.56-10.134a18.8,18.8,0,0,1,2.805-.72,3.013,3.013,0,0,1,.059.314,2.565,2.565,0,0,0,.493,1.343l-3.286.031s-9.271,32.4-9.611,37.983c-.13,2.122-.56,6.756-1.04,11.637l-5.034.741-.216,18.672c-.282.081-.562.159-.84.233a14.482,14.482,0,0,0-4.224,2.5C801.449,246.4,800.589,246.933,800.857,244.177Z" transform="translate(-800.809 -140.695)" fill="#F36580"/>
          <g id="Group_3730" data-name="Group 3730" transform="translate(19.17 91.868)">
            <path id="Path_19412" data-name="Path 19412" d="M965.965,536.93l1.728,3.526-5.68,6.853-3.548-1.561,2.711-7.509,3.508-3.956Z" transform="translate(-915.555 -452.437)" fill="#2e4661"/>
            <g id="Group_3729" data-name="Group 3729">
              <path id="Path_19413" data-name="Path 19413" d="M899.354,409.523l-15.811-33.946-8.426-41.108-3.895-8.04-21.73,6.372,1.888,6.343,17.275,41.48,25.955,32.493Z" transform="translate(-849.492 -326.429)" fill="#FEB65A"/>
            </g>
          </g>
          <g id="Group_3731" data-name="Group 3731" transform="translate(9.103 86.146)">
            <path id="Path_19414" data-name="Path 19414" d="M827.042,311.9l-2.253,48.613,5.321,48.635,5.437.2,5.048-44.516,9.054-44.371Z" transform="translate(-824.449 -311.897)" fill="#FEB65A"/>
            <path id="Path_19415" data-name="Path 19415" d="M835.389,563.6l-10.849,3.154-.614-3.683,5.91-4.176,5.24.19Z" transform="translate(-823.926 -461.636)" fill="#2e4661"/>
          </g>
          <path id="Path_19416" data-name="Path 19416" d="M825.522,301.9c-.758,7.725-1.638,16.071-1.638,16.071s4.07.1,9.958.535c-.435-.01-.871-.021-1.306-.025-4.1-.036-8.343,1.7-12.264,2.832l.216-18.672Z" transform="translate(-812.608 -219.689)" fill="#F36580"/>
          <path id="Path_19417" data-name="Path 19417" d="M901.618,320.177c2.807.146,3.156-.374,3.156-.374s-2.533-10.173-4.311-19.021l8.017,1.18.1,21.127a21,21,0,0,0-2.146-1.2A27.35,27.35,0,0,0,901.618,320.177Z" transform="translate(-861.223 -219.013)" fill="#F36580"/>
          <path id="Path_19418" data-name="Path 19418" d="M828.011,226.573c.521-5,.99-9.745,1.131-11.918.371-5.719,10.46-38.9,10.46-38.9l3.576-.032a1.232,1.232,0,0,0,.124.12,1.137,1.137,0,0,0,.384.207,2.263,2.263,0,0,0,.915.024l3.547-.395.856-.008,4.638,8.882s.956,23.22,1.171,30.25a79.436,79.436,0,0,0,1.849,11.318c1.935,9.062,4.691,19.479,4.691,19.479s-.38.533-3.436.383a65.381,65.381,0,0,1-9.279-1.348l-.516-.058c-3.5-.394-6.859-.691-9.845-.913l-1.212-.088c-6.407-.45-10.837-.548-10.837-.548S827.185,234.483,828.011,226.573Z" transform="translate(-816.219 -143.167)" fill="#fff"/>
          <path id="Path_19419" data-name="Path 19419" d="M853.613,135.918a5.987,5.987,0,0,0-.391-2.644,2.5,2.5,0,0,1-.044-.684,19.527,19.527,0,0,0,4.285-1.351c2.389-1.043,7.041-2.153,9.522-.922,1.961.975,1.359,4.08,1.26,6.044a5.376,5.376,0,0,0,.052,1.51,6.47,6.47,0,0,0,.63,1.272,5.425,5.425,0,0,1-1.16,2.151c-1.572,1.775-3.171,2.647-3.595,4.65a5.95,5.95,0,0,0-.068,1.892l-.17.02-3.259.386a1.954,1.954,0,0,1-.84-.023,1.026,1.026,0,0,1-.354-.2,1.341,1.341,0,0,1-.114-.117,2.567,2.567,0,0,1-.493-1.343,2.906,2.906,0,0,0-.058-.314c-.424-1.828-2.444-2.651-3.532-4.273a14.2,14.2,0,0,1-2.157-6.16c-.005-.037-.01-.074-.015-.112A3.152,3.152,0,0,0,853.613,135.918Z" transform="translate(-832.516 -115.342)" fill="#eac1a4"/>
          <path id="Path_19420" data-name="Path 19420" d="M835.93,100.7a6.382,6.382,0,0,0,2.241-1.875c.382-.676.439-1.514.818-2.192.687-1.229,2.178-1.59,3.475-2.007,3.244-1.042,4.991-2.245,8.427-.911,2.443.948,5.6,1.075,7.867,2.459a7.939,7.939,0,0,1,2.414,2.539,14.332,14.332,0,0,1,1.349,12.353,15.264,15.264,0,0,1-1.212,2.341c-.907,1.473-1.879,3.284-3.485,4a1.742,1.742,0,0,0-.148-.486,6.47,6.47,0,0,1-.63-1.272,5.378,5.378,0,0,1-.052-1.51c.1-1.964.7-5.069-1.26-6.044-2.48-1.231-7.133-.12-9.522.922a19.526,19.526,0,0,1-4.285,1.351,2.494,2.494,0,0,0,.045.684,5.987,5.987,0,0,1,.391,2.644,3.153,3.153,0,0,1-.5-.221,5.421,5.421,0,0,1-2.251-2.99,4.487,4.487,0,0,1-1.333-.334c-2.092-.917-3.793-4.574-3.723-6.825A3.131,3.131,0,0,1,835.93,100.7Z" transform="translate(-821.265 -93.122)" fill="#2c1e56"/>
        </g>
        <g id="Group_3734" data-name="Group 3734">
          <g id="Group_3733" data-name="Group 3733">
            <path id="Path_19421" data-name="Path 19421" d="M676.54.031l-2.058.715a.63.63,0,0,0-.309.875l8.483,19.963a4.078,4.078,0,0,1,.144,2.953,3,3,0,0,1-1.857,1.9l-22.854,7.938a3.48,3.48,0,0,1-2.784-.284,4.619,4.619,0,0,1-2.078-2.28l-8.267-19.459a.74.74,0,0,0-.877-.463l-2.057.715a.63.63,0,0,0-.309.875l8.267,19.458a9.177,9.177,0,0,0,4.128,4.539,6.92,6.92,0,0,0,5.534.558L682.5,30.092a5.972,5.972,0,0,0,3.7-3.763,8.116,8.116,0,0,0-.293-5.871L677.417.494A.74.74,0,0,0,676.54.031Z" transform="translate(-639.948 0)" fill="#bcbec0"/>
            <path id="Path_19422" data-name="Path 19422" d="M747.871,155.911a11.027,11.027,0,0,0,13.294-15.666l-1.815-2.473-66.3-90.281c5.747-8.657,5.9-21.074-.545-31.611A32.62,32.62,0,0,0,677.427,2.748l8.847,20.823c1.294,3.047.142,6.305-2.559,7.241l-22.854,7.938c-2.7.94-5.967-.783-7.262-3.83l-8.669-20.409c-3.754,8.311-3.152,18.93,2.473,28.121,6.043,9.879,16.277,15.477,26.156,15.358l68.593,93.4.889,1.213A10.962,10.962,0,0,0,747.871,155.911Z" transform="translate(-640.496 -1.666)" fill="#bcbec0"/>
            <path id="Path_19423" data-name="Path 19423" d="M742.642,155.456a11.027,11.027,0,0,0,13.295-15.666l-1.815-2.473-66.3-90.281c5.747-8.656,5.9-21.073-.544-31.61A32.622,32.622,0,0,0,672.2,2.293l8.847,20.823c1.294,3.047.142,6.305-2.559,7.241L655.632,38.3c-2.7.94-5.968-.783-7.262-3.83L639.7,14.057c-3.754,8.312-3.151,18.93,2.473,28.121,6.042,9.878,16.277,15.477,26.156,15.358l68.593,93.4.889,1.213A10.964,10.964,0,0,0,742.642,155.456Z" transform="translate(-637.326 -1.39)" fill="#dbdbdb"/>
            <path id="Path_19424" data-name="Path 19424" d="M674.284.761l-2.058.715a.63.63,0,0,0-.309.875L680.4,22.313a4.079,4.079,0,0,1,.144,2.953,3.005,3.005,0,0,1-1.857,1.9L655.833,35.1a3.481,3.481,0,0,1-2.785-.284,4.621,4.621,0,0,1-2.078-2.281L642.7,13.077a.74.74,0,0,0-.877-.463l-2.057.715a.629.629,0,0,0-.309.875l8.267,19.458a9.18,9.18,0,0,0,4.128,4.54,6.919,6.919,0,0,0,5.534.558l22.852-7.938a5.973,5.973,0,0,0,3.7-3.764,8.114,8.114,0,0,0-.293-5.871L675.161,1.224A.74.74,0,0,0,674.284.761Z" transform="translate(-638.58 -0.442)" fill="#bcbec0"/>
            <path id="Path_19425" data-name="Path 19425" d="M818.949,228.166l-55.666-75.8a2.906,2.906,0,0,0-4.022-.917L752.5,156.6a3.038,3.038,0,0,0-.271,4.192L807.9,236.6a2.907,2.907,0,0,0,4.022.917l6.757-5.157A3.038,3.038,0,0,0,818.949,228.166Z" transform="translate(-706.562 -91.523)" fill="#bcbec0"/>
            <path id="Path_19426" data-name="Path 19426" d="M891.152,381l-.889-1.213A10.761,10.761,0,0,0,891.152,381Z" transform="translate(-790.665 -230.243)" fill="#dbdbdb"/>
          </g>
          <path id="Path_19427" data-name="Path 19427" d="M813.241,272.368l-3.18.381-2.193-1.78-.613.273.306.769-2.243-.957-1.9.563-.857,2.49.882,2.574,2.563.59,2.989-.918,4.376-.333Z" transform="translate(-737.498 -164.271)" fill="#eac1a4"/>
          <path id="Path_19428" data-name="Path 19428" d="M822.5,225.964l17.261-2.75,10.358-26.794,11.687,8.542-10.271,25.905-5.674,4.618-24.836-3.1Z" transform="translate(-748.69 -119.076)" fill="#F36580"/>
        </g>
      </g>
    </g>
  </g>
</svg>
